<svg width="358" height="990" viewBox="0 0 358 990" fill="none" xmlns="http://www.w3.org/2000/svg">
<g clip-path="url(#clip0_850_111)">
<path d="M506.162 509.273C502.682 496.284 500.08 311.839 401.024 282.391C286.9 248.463 246.95 207.712 227.148 130.568C227.923 133.703 201.359 271.384 256.043 321.239C340.854 398.366 334.91 477.271 298.555 479.895C237.482 484.344 218.585 385.763 221.692 358.781C190.239 362.831 161.588 396.346 153.018 433.859C127.317 546.973 265.985 611.464 244.6 692.739C228.345 754.659 147.637 662.941 147.587 662.057C196.451 1093.12 650.851 982.652 583.058 630.405C562.677 524.785 620.657 448.827 623.363 449.531C533.27 424.569 507.05 512.589 506.162 509.273ZM439.191 839.039C331.982 873.242 315.295 766.367 320.897 729.017C327.977 681.471 372.551 660.506 333.983 612.112C334.515 612.867 387.593 609.022 430.962 642.803C497.419 694.376 522.999 812.195 439.191 839.039Z" fill="#7B7979" fill-opacity="0.44"/>
<path d="M331.23 187.712C313.901 173.744 300.263 155.051 296.329 140.369C288.954 112.844 299.473 81.6688 316.524 49.9434C324.819 71.3421 320.959 107.804 337.778 129.263C350.593 145.045 368.745 161.925 372.679 176.606C377.95 196.278 377.018 215.743 366.12 235.04C361.88 228.29 351.447 205.23 331.23 187.712Z" fill="#7B7979" fill-opacity="0.44"/>
</g>
<defs>
<clipPath id="clip0_850_111">
<rect width="520.654" height="884.691" fill="white" transform="translate(0 134.756) rotate(-15)"/>
</clipPath>
</defs>
</svg>
