<svg width="428" height="1056" viewBox="0 0 428 1056" fill="none" xmlns="http://www.w3.org/2000/svg">
<g opacity="0.4" clip-path="url(#clip0_1402_49)">
<path d="M536.313 546.677C532.401 532.672 525.716 334.773 421.703 301.141C301.869 262.391 259.298 217.854 236.971 134.697C237.848 138.076 213.088 285.211 271.232 339.817C361.403 424.299 356.898 508.814 319.014 510.879C255.371 514.389 233.528 408.256 236.19 379.378C203.451 383.073 174.271 418.431 166.134 458.493C141.746 579.294 287.854 651.334 267.285 738.072C251.653 804.155 165.45 704.107 165.378 703.158C225.653 1166.55 697.505 1057.44 619.172 678.198C595.628 564.483 654.503 484.203 657.343 485.014C562.781 456.379 537.311 550.252 536.313 546.677ZM473.517 899.019C362.366 933.494 342.65 818.509 347.692 778.561C354.058 727.707 400.126 706.139 358.833 653.433C359.405 654.254 414.717 651.225 460.705 688.356C531.173 745.048 560.405 871.956 473.517 899.019Z" fill="#FFD4B5"/>
<path d="M346.826 198.142C328.44 182.801 313.804 162.467 309.382 146.638C301.092 116.961 311.4 83.7378 328.512 50.0594C337.629 73.1842 334.386 112.215 352.401 135.581C366.115 152.774 385.423 171.255 389.844 187.084C395.769 208.294 395.215 229.155 384.257 249.628C379.686 242.3 368.302 217.349 346.826 198.142Z" fill="#FF842C" fill-opacity="0.35"/>
</g>
<defs>
<clipPath id="clip0_1402_49">
<rect width="538.927" height="956.63" fill="white" transform="matrix(0.968518 -0.248943 0.269029 0.963132 0 134.499)"/>
</clipPath>
</defs>
</svg>
