<svg width="173.99" height="108" version="1.1" viewBox="0 0 46.035 28.575" xmlns="http://www.w3.org/2000/svg">
 <defs>
  <clipPath>
   <path d="M 0,102.636 H 337.23 V 0 H 0 Z"/>
  </clipPath>
 </defs>
 <path transform="matrix(.26458 0 0 .26458 0 -4.481e-5)" d="m54.354 8.0059c-25.605 1.416e-4 -46.362 20.594-46.363 45.998-2.806e-4 25.405 20.757 46 46.363 46 25.606-1.4e-4 46.342-20.595 46.341-46-8.1e-4 -25.404-20.736-45.998-46.341-45.998z" fill="#fff" style="paint-order:normal"/>
 <path d="m37.011 11.62v3.6954h3.4965v-3.6954z" fill="#fff" style="paint-order:normal"/>
 <path transform="matrix(.26458 0 0 .26458 0 -4.481e-5)" d="m90 36.586v35.985h60.75v-35.985z" fill="#fff" style="paint-order:normal"/>
 <g transform="translate(-143.29 120.97)">
  <g transform="matrix(.35275 0 0 -.35278 138.83 -89.339)"></g>
  <path d="m165.13-100.48c-0.18403 0.21724-0.37548 0.42761-0.57768 0.62825-1.7656 1.7498-4.1908 2.8284-6.883 2.8289-2.6922-4.6e-4 -5.1169-1.0791-6.8827-2.8289-1.7634-1.7517-2.8504-4.1584-2.8507-6.8296 2.4e-4 -2.6712 1.0872-5.0777 2.8507-6.8296 1.7658-1.7498 4.1905-2.8282 6.8827-2.8289 2.6922 7.2e-4 5.1174 1.0791 6.883 2.8289 0.30784 0.3057 0.59346 0.63275 0.85804 0.97641h3.0137c-0.56167-1.0151-1.2636-1.9422-2.0818-2.7528-2.2154-2.2006-5.29-3.5655-8.6729-3.5648-3.3827-7e-4 -6.457 1.3642-8.6727 3.5648-2.2178 2.1985-3.5932 5.2492-3.5925 8.606-7.1e-4 3.3568 1.3748 6.4075 3.5925 8.606 2.2156 2.2007 5.29 3.5655 8.6727 3.5648 3.3829 7.9e-4 6.4575-1.3642 8.6729-3.5648 0.72348-0.71671 1.3547-1.5254 1.88-2.4046h-3.0923" fill="#fca03b" style="paint-order:stroke markers fill"/>
  <path d="m152.44-111.29v2.6643h10.554c0-0.85237-0.21014-1.5092-0.63055-1.9712-0.42018-0.462-1.0417-0.69309-1.8643-0.69309h-8.0595m14.789 0c-0.82243 0-1.4443 0.23109-1.8647 0.69309-0.42018 0.46199-0.6302 1.1188-0.6302 1.9712h10.333v-2.6643h-7.8379m9.5752 0v2.6626h10.408v-2.6626l-10.408-3e-5m-20.885 3.4696v2.5819h3.5953v0.80669h-7.0743v2.6629h7.8876c1.8232 0 2.6836-1.0779 2.6836-2.6629 0-0.87111-0.36533-1.5783-1.1249-2.0306 0.56525-0.0524 1.0664-0.64748 1.0664-1.358h-7.0337m24.382 0v6.0515h3.4965l-2e-5 -6.0515h-3.4965m-15.567 2e-3v3.3911c0 0.73544 0.24614 1.3637 0.73873 1.884 0.4926 0.5201 1.1414 0.78028 1.9459 0.78028h7.6482v-2.6643h-6.8187v-3.3911h-3.514" fill="#5f6060" style="paint-order:stroke fill markers"/>
 </g>
</svg>
